<?xml version="1.0" encoding="UTF-8" standalone="no"?>
<!-- Generator: Adobe Illustrator 18.0.0, SVG Export Plug-In . SVG Version: 6.00 Build 0)  -->

<svg
   xmlns:dc="http://purl.org/dc/elements/1.1/"
   xmlns:cc="http://creativecommons.org/ns#"
   xmlns:rdf="http://www.w3.org/1999/02/22-rdf-syntax-ns#"
   xmlns:svg="http://www.w3.org/2000/svg"
   xmlns="http://www.w3.org/2000/svg"
   xmlns:sodipodi="http://sodipodi.sourceforge.net/DTD/sodipodi-0.dtd"
   xmlns:inkscape="http://www.inkscape.org/namespaces/inkscape"
   version="1.1"
   id="Capa_1"
   x="0px"
   y="0px"
   viewBox="0 0 16 16"
   xml:space="preserve"
   sodipodi:docname="scrcpy-symbolic.svg"
   width="16"
   height="16"
   inkscape:version="0.92.4 5da689c313, 2019-01-14"><metadata
   id="metadata937"><rdf:RDF><cc:Work
       rdf:about=""><dc:format>image/svg+xml</dc:format><dc:type
         rdf:resource="http://purl.org/dc/dcmitype/StillImage" /><dc:title /></cc:Work></rdf:RDF></metadata><defs
   id="defs935" /><sodipodi:namedview
   pagecolor="#ffffff"
   bordercolor="#666666"
   borderopacity="1"
   objecttolerance="10"
   gridtolerance="10"
   guidetolerance="10"
   inkscape:pageopacity="0"
   inkscape:pageshadow="2"
   inkscape:window-width="1366"
   inkscape:window-height="704"
   id="namedview933"
   showgrid="false"
   inkscape:zoom="16.0625"
   inkscape:cx="7.1562203"
   inkscape:cy="4.8951303"
   inkscape:window-x="0"
   inkscape:window-y="27"
   inkscape:window-maximized="1"
   inkscape:current-layer="Capa_1" />
<g
   id="g900"
   transform="scale(0.27586207)">
</g>
<g
   id="g902"
   transform="translate(0,-42)">
</g>
<g
   id="g904"
   transform="translate(0,-42)">
</g>
<g
   id="g906"
   transform="translate(0,-42)">
</g>
<g
   id="g908"
   transform="translate(0,-42)">
</g>
<g
   id="g910"
   transform="translate(0,-42)">
</g>
<g
   id="g912"
   transform="translate(0,-42)">
</g>
<g
   id="g914"
   transform="translate(0,-42)">
</g>
<g
   id="g916"
   transform="translate(0,-42)">
</g>
<g
   id="g918"
   transform="translate(0,-42)">
</g>
<g
   id="g920"
   transform="translate(0,-42)">
</g>
<g
   id="g922"
   transform="translate(0,-42)">
</g>
<g
   id="g924"
   transform="translate(0,-42)">
</g>
<g
   id="g926"
   transform="translate(0,-42)">
</g>
<g
   id="g928"
   transform="translate(0,-42)">
</g>
<g
   id="g930"
   transform="translate(0,-42)">
</g>
<path
   style="fill:#bebebe;fill-opacity:1;stroke-width:2.67573357"
   d="M 14.142578 0.001953125 C 13.692747 0.016648915 13.248332 0.23960556 13 0.62890625 L 11.583984 2.8925781 C 10.503982 2.3502423 9.2879997 2.0546875 8 2.0546875 C 6.7119996 2.0546875 5.4933489 2.3475576 4.4160156 2.8925781 L 3 0.62890625 C 2.7020001 0.15973175 2.0964844 -0.047835275 1.5839844 0.041015625 C 1.4131503 0.070632625 1.2393178 0.10897438 1.0839844 0.20898438 C 0.46265121 0.60902448 0.35266666 1.4291216 0.75 2.0546875 L 2.25 4.4882812 C 0.85987737 5.9306088 0.010699645 7.8338744 0.001953125 10 L 0 10 L 0 13.310547 C 0 14.792575 1.1940156 15.996094 2.6660156 15.996094 C 14.793086 15.997394 1.1979724 16.005794 13.333984 15.996094 C 14.805983 15.996094 16 14.792575 16 13.310547 L 16 10 L 15.998047 10 C 15.9893 7.8338744 15.140123 5.9306088 13.75 4.4882812 L 15.25 2.0546875 C 15.647334 1.4291216 15.534683 0.60902448 14.916016 0.20898438 C 14.684015 0.05896945 14.412477 -0.006864349 14.142578 0.001953125 z M 4.4492188 6.1992188 A 1.25 1.25 0 0 1 5.6992188 7.4492188 A 1.25 1.25 0 0 1 4.4492188 8.6992188 A 1.25 1.25 0 0 1 3.1992188 7.4492188 A 1.25 1.25 0 0 1 4.4492188 6.1992188 z M 11.550781 6.1992188 A 1.25 1.25 0 0 1 12.800781 7.4492188 A 1.25 1.25 0 0 1 11.550781 8.6992188 A 1.25 1.25 0 0 1 10.300781 7.4492188 A 1.25 1.25 0 0 1 11.550781 6.1992188 z "
   id="path10" /></svg>
