<?xml version="1.0" encoding="UTF-8" standalone="no"?>
<!-- Generator: Adobe Illustrator 18.0.0, SVG Export Plug-In . SVG Version: 6.00 Build 0)  -->

<svg
   xmlns:dc="http://purl.org/dc/elements/1.1/"
   xmlns:cc="http://creativecommons.org/ns#"
   xmlns:rdf="http://www.w3.org/1999/02/22-rdf-syntax-ns#"
   xmlns:svg="http://www.w3.org/2000/svg"
   xmlns="http://www.w3.org/2000/svg"
   xmlns:sodipodi="http://sodipodi.sourceforge.net/DTD/sodipodi-0.dtd"
   xmlns:inkscape="http://www.inkscape.org/namespaces/inkscape"
   version="1.1"
   id="Capa_1"
   x="0px"
   y="0px"
   viewBox="0 0 16 16"
   xml:space="preserve"
   sodipodi:docname="a.svg"
   width="16"
   height="16"
   inkscape:version="0.92.2 2405546, 2018-03-11"><metadata
   id="metadata937"><rdf:RDF><cc:Work
       rdf:about=""><dc:format>image/svg+xml</dc:format><dc:type
         rdf:resource="http://purl.org/dc/dcmitype/StillImage" /><dc:title></dc:title></cc:Work></rdf:RDF></metadata><defs
   id="defs935" /><sodipodi:namedview
   pagecolor="#ffffff"
   bordercolor="#666666"
   borderopacity="1"
   objecttolerance="10"
   gridtolerance="10"
   guidetolerance="10"
   inkscape:pageopacity="0"
   inkscape:pageshadow="2"
   inkscape:window-width="1366"
   inkscape:window-height="713"
   id="namedview933"
   showgrid="false"
   inkscape:zoom="24.77312"
   inkscape:cx="5.4626597"
   inkscape:cy="8.4394816"
   inkscape:window-x="0"
   inkscape:window-y="27"
   inkscape:window-maximized="1"
   inkscape:current-layer="Capa_1" />
<g
   id="g900"
   transform="scale(0.27586207)">
	<path
   style="fill:#bebebe;stroke-width:0.27586207;fill-opacity:1"
   d="M 8.1386719 0 C 3.7966029 -5.9211895e-16 0.27539062 3.5192591 0.27539062 7.8613281 C 0.27539063 9.3267074 0.67874623 10.698702 1.3769531 11.873047 L 0 16 L 4.4804688 14.820312 C 5.5731584 15.395761 6.8175684 15.724609 8.1386719 15.724609 C 12.480741 15.724609 16 12.203397 16 7.8613281 C 16 3.5192591 12.480741 0 8.1386719 0 z M 5.0585938 2.7675781 C 5.2138351 2.7441988 5.3755533 2.7684617 5.5214844 2.8457031 C 6.2075533 3.2087376 6.9921875 4.5488281 6.9921875 4.5488281 C 7.1648772 4.8517247 7.1848152 5.2157064 6.8769531 5.3886719 C 6.8769531 5.3886719 6.3543314 5.8249262 6.2792969 5.9355469 C 5.936952 6.4409262 5.9512764 6.9083076 6.4238281 7.3808594 L 7.5214844 8.4785156 L 8.6191406 9.5761719 C 9.0916924 10.048724 9.5590738 10.063048 10.064453 9.7207031 C 10.175074 9.6456686 10.611328 9.1230469 10.611328 9.1230469 C 10.784018 8.8151848 11.148275 8.8351228 11.451172 9.0078125 C 11.451172 9.0078125 12.791262 9.7924467 13.154297 10.478516 C 13.30878 10.770102 13.254864 11.12935 13.021484 11.363281 L 12.537109 11.847656 C 10.998627 13.386139 9.261139 12.628327 7.7226562 11.089844 L 6.3164062 9.6835938 L 4.9101562 8.2773438 C 3.3716735 6.738861 2.613861 5.0033265 4.1523438 3.4648438 L 4.6386719 2.9785156 C 4.7553615 2.861826 4.9033524 2.7909574 5.0585938 2.7675781 z "
   transform="scale(3.625)"
   id="path896" />
	
</g>
<g
   id="g902"
   transform="translate(0,-42)">
</g>
<g
   id="g904"
   transform="translate(0,-42)">
</g>
<g
   id="g906"
   transform="translate(0,-42)">
</g>
<g
   id="g908"
   transform="translate(0,-42)">
</g>
<g
   id="g910"
   transform="translate(0,-42)">
</g>
<g
   id="g912"
   transform="translate(0,-42)">
</g>
<g
   id="g914"
   transform="translate(0,-42)">
</g>
<g
   id="g916"
   transform="translate(0,-42)">
</g>
<g
   id="g918"
   transform="translate(0,-42)">
</g>
<g
   id="g920"
   transform="translate(0,-42)">
</g>
<g
   id="g922"
   transform="translate(0,-42)">
</g>
<g
   id="g924"
   transform="translate(0,-42)">
</g>
<g
   id="g926"
   transform="translate(0,-42)">
</g>
<g
   id="g928"
   transform="translate(0,-42)">
</g>
<g
   id="g930"
   transform="translate(0,-42)">
</g>
</svg>